<svg xmlns="http://www.w3.org/2000/svg" xmlns:xlink="http://www.w3.org/1999/xlink" version="1.1" id="Layer_1" x="0px" y="0px" width="100px" height="100px" viewBox="0 0 100 100" enable-background="new 0 0 100 100" xml:space="preserve">
<g>
	<g>
		<path fill-rule="evenodd" clip-rule="evenodd" d="M79.324,56.674H47.778c0,0.019-0.006,0.032-0.006,0.051    c-0.031,0.179-0.051,0.352-0.076,0.505c-0.006,0.038-0.006,0.071-0.006,0.102c-0.02,0.083-0.02,0.16-0.033,0.23    c-0.006,0.064-0.02,0.122-0.02,0.173c-0.031,0.294-0.031,0.493,0,0.589c0.09,0.301,0.141,0.666,0.141,1.062    c0,0.826-0.197,1.729-0.633,2.157c-0.173,0.173-0.346,0.237-0.524,0.237c-0.437,0-0.852-0.384-1.114-0.384    c-0.031,0-0.064,0-0.082,0.006c-0.366,0.141-1.506,2.215-2.292,2.355c-0.063,0.013-0.122,0.013-0.167,0.013    c-0.045-0.013-0.09-0.02-0.107-0.039c-0.045-0.045-0.051-0.122-0.033-0.224v-0.013c0.02-0.039,0.033-0.089,0.051-0.141    c0.02-0.051,0.051-0.103,0.072-0.16c0.031-0.064,0.062-0.122,0.102-0.192c0-0.012,0-0.012,0-0.012    c0.109-0.18,0.23-0.384,0.371-0.615c0.153-0.23,0.312-0.486,0.498-0.768c0.092-0.134,0.18-0.275,0.283-0.422    c0.153-0.237,0.301-0.819,0.453-1.67c0.052-0.301,0.104-0.647,0.154-1.011c0.031-0.244,0.07-0.506,0.102-0.769    c0.02-0.16,0.039-0.333,0.059-0.505c0.02-0.16,0.038-0.333,0.058-0.505v-0.006c0-0.013,0.007-0.026,0.007-0.045H20.753    l-9.799,18.221h77.164L79.324,56.674z"/>
		<path fill-rule="evenodd" clip-rule="evenodd" d="M45.91,46.927c-0.038,0.5-0.077,0.999-0.121,1.511    c-0.032,0.41-0.071,0.825-0.103,1.241c-0.025,0.352-0.058,0.711-0.09,1.05c-0.064,0.813-0.135,1.613-0.198,2.375    c-0.077,0.813-0.153,1.6-0.224,2.336c-0.033,0.256-0.051,0.505-0.084,0.749c-0.018,0.167-0.032,0.333-0.057,0.486    c0,0.019-0.007,0.032-0.007,0.045l-0.231,0.006v-7.495c0-0.448-0.422-0.819-0.908-1.101c-0.48-0.275-1.012-0.467-1.248-0.557    c-1.279-0.429-3.182-1.139-3.182-3.462c0-1.657,0.525-2.989,0.955-4.127c0.428-0.999,0.755-1.901,0.755-2.893    c0-1.85-1.089-3.847-3.456-3.847c-2.33,0-3.424,1.997-3.424,3.847c0,0.992,0.34,1.895,0.762,2.893    c0.43,1.139,0.946,2.47,0.946,4.127c0,2.324-1.938,3.034-3.226,3.462c-0.473,0.186-2.277,0.762-2.277,1.658v7.495l-1.99-0.045    v-7.45c-0.045-2.228,2.516-3.129,3.891-3.603c1.76-0.57,1.517-0.902,1.517-1.517c0-1.28-0.429-2.323-0.806-3.373    c-0.475-1.133-0.896-2.272-0.896-3.647c0-2.944,1.9-5.882,5.504-5.882c3.648,0,5.549,2.938,5.549,5.882    c0,1.375-0.475,2.515-0.902,3.647c-0.385,1.05-0.807,2.093-0.807,3.373c0,0.615,0.615,0.947,2.324,1.517    c0.069,0.025,0.135,0.051,0.203,0.077C44.72,45.954,45.392,46.364,45.91,46.927z"/>
	</g>
	<g>
		<path d="M50.551,19.062c-0.021,0-0.032,0-0.052,0 M50.364,56.674c0,0.038,0.007,0.077,0.007,0.115    c0.077,0.999,0.915,1.772,1.921,1.772h18.719c0.985,0,1.812-0.743,1.914-1.728c0.006-0.051,0.014-0.103,0.02-0.16    c0.153-1.613,0.332-3.898,0.332-5.946c0-4.198-0.838-11.936-2.406-15.526c-0.205-0.474-0.402-0.896-0.608-1.293    c-0.165-0.333-0.352-0.672-0.531-0.998c-0.019-0.026-0.031-0.058-0.051-0.083c-0.013-0.032-0.032-0.064-0.058-0.096    c-0.032-0.057-0.07-0.121-0.109-0.179c-0.043-0.077-0.088-0.147-0.134-0.217c-0.058-0.096-0.121-0.199-0.192-0.301    c-0.019-0.032-0.045-0.064-0.07-0.096c-0.043-0.083-0.089-0.147-0.127-0.205c-0.173-0.256-0.334-0.474-0.493-0.666    c-0.007-0.012-0.013-0.019-0.02-0.025c-0.141-0.191-0.274-0.352-0.39-0.486l-0.039-0.045c-0.006-0.006-0.013-0.019-0.02-0.025    c-0.032-0.032-0.07-0.077-0.115-0.128c-0.006,0-0.006-0.007-0.012-0.007c-0.18-0.205-0.404-0.441-0.66-0.685    c-0.416-0.384-0.807-0.704-1.203-0.966c-0.428-0.288-0.877-0.525-1.369-0.729c-0.032-0.013-0.064-0.026-0.096-0.039l-0.09-0.032    c-0.135-0.051-0.27-0.096-0.416-0.134c-0.212-0.07-0.416-0.108-0.595-0.147c-0.026-0.006-0.059-0.013-0.083-0.013    c-0.193-0.038-0.371-0.063-0.514-0.083c-0.236-0.026-0.48-0.045-0.716-0.045c-0.134,0-0.263,0.006-0.397,0.019    c-0.096,0-0.191,0.013-0.281,0.02c-0.083,0.006-0.166,0.012-0.25,0.019h-0.045l-0.62,0.045c-0.308,0.025-0.589,0.045-0.864,0.064    c-0.006,0-0.019,0-0.031,0.007c-0.602,0.044-1.082,0.07-1.46,0.07c-0.735,0-0.89-0.096-0.953-0.173    c-0.108-0.307-0.065-1.242-0.032-1.805c0.07-1.396,0.153-2.976-0.641-4.282c-0.383-0.621-0.807-1.184-1.268-1.67l-0.051-0.058    c-0.121-0.128-0.248-0.269-0.377-0.397c-0.308-0.307-0.641-0.589-0.992-0.845c-0.108-0.083-0.236-0.179-0.402-0.282    c-0.288-0.186-0.584-0.346-0.877-0.48c-0.02-0.006-0.039-0.019-0.064-0.025c-0.045-0.026-0.09-0.045-0.135-0.064    c-0.083-0.039-0.146-0.064-0.191-0.083c-0.039-0.02-0.098-0.039-0.141-0.051l-0.033-0.013c-0.006,0-0.012-0.006-0.025-0.006    c-0.127-0.058-0.25-0.096-0.332-0.122c-0.301-0.103-0.59-0.167-0.877-0.205c-0.084-0.013-0.167-0.019-0.25-0.019    c-0.051-0.007-0.102-0.013-0.152-0.02h-0.053l-0.051-0.006c-0.103-0.013-0.256-0.033-0.441-0.033c-0.039,0-0.07,0-0.109,0.007    c-0.083,0-0.211,0-0.357,0.019l-0.225,0.019l-0.045,0.006c-0.077,0.007-0.146,0.02-0.225,0.032    c-0.07,0.02-0.152,0.032-0.229,0.045l-0.046,0.006c-0.052,0.013-0.109,0.026-0.16,0.039c-0.026,0.006-0.051,0.012-0.077,0.019    c-0.242,0.057-0.461,0.127-0.672,0.217c-0.281,0.096-0.523,0.211-0.729,0.314c-1.723,0.876-2.92,2.252-3.476,3.981    c-0.628,1.926-0.391,4.121,0.665,6.182c1.318,2.566,3.309,3.257,4.5,3.667c-0.396,0.518-0.992,1.19-1.473,1.734    c-0.326,0.364-0.672,0.755-1.023,1.164c-0.717,0.833-1.146,1.863-1.274,3.072c0,0.006,0,0.02-0.007,0.026    c-0.006,0.044-0.012,0.083-0.018,0.128c-0.014,0.07-0.026,0.154-0.039,0.237l-0.014,0.058c0,0.025-0.012,0.064-0.012,0.096    c-0.013,0.071-0.02,0.141-0.033,0.224c-0.019,0.128-0.037,0.282-0.062,0.455c-0.02,0.154-0.045,0.326-0.064,0.505    c-0.045,0.397-0.096,0.864-0.142,1.363l-0.024,0.282c-0.026,0.173-0.039,0.333-0.053,0.461c0,0.051-0.006,0.096-0.012,0.141    c-0.013,0.102-0.02,0.205-0.025,0.307l-0.02,0.186l-0.014,0.141c-0.018,0.218-0.037,0.448-0.057,0.691    c-0.045,0.474-0.09,0.979-0.128,1.491c-0.026,0.294-0.051,0.583-0.077,0.883l-0.006,0.07c-0.007,0.109-0.014,0.211-0.025,0.32    c0,0.006-0.008,0.02-0.008,0.032c0,0.019,0,0.039-0.006,0.058l-0.025,0.41l-0.031,0.403c-0.027,0.269-0.045,0.55-0.071,0.838    c-0.019,0.237-0.038,0.474-0.058,0.717c-0.006,0.045-0.006,0.09-0.012,0.135c-0.014,0.217-0.033,0.41-0.045,0.595    c-0.02,0.23-0.039,0.461-0.059,0.685c-0.025,0.32-0.058,0.672-0.089,1.011c-0.063,0.832-0.134,1.619-0.198,2.381    c-0.052,0.563-0.109,1.12-0.161,1.658l-0.063,0.64c-0.014,0.122-0.025,0.249-0.038,0.371c-0.013,0.116-0.026,0.237-0.039,0.346    c0,0.013-0.007,0.051-0.007,0.058c-0.018,0.166-0.031,0.326-0.051,0.48l-0.013,0.063l-0.013,0.122l-0.039,0.32l-0.006,0.064    L43.005,57.5c-0.02,0.141-0.039,0.275-0.051,0.41c-0.021,0.115-0.033,0.23-0.052,0.346c-0.044,0.339-0.089,0.66-0.141,0.941    c-0.116,0.64-0.192,0.928-0.231,1.03l-0.043,0.07c-0.053,0.083-0.104,0.154-0.154,0.224c-0.006,0.013-0.014,0.025-0.025,0.039    l-0.275,0.429l-0.219,0.339c-0.012,0.019-0.018,0.032-0.031,0.051l-0.211,0.352l-0.16,0.263c-0.039,0.064-0.078,0.128-0.103,0.198    c-0.019,0.025-0.032,0.058-0.051,0.089l-0.013,0.026c-0.031,0.064-0.064,0.134-0.09,0.199c-0.02,0.044-0.039,0.083-0.051,0.121    c-0.025,0.064-0.053,0.128-0.07,0.192c-0.059,0.141-0.096,0.294-0.116,0.448c-0.095,0.691,0.109,1.35,0.583,1.824    c0.012,0.013,0.025,0.026,0.038,0.038c0.294,0.275,0.665,0.461,1.101,0.531c0.109,0.019,0.219,0.032,0.326,0.032    c0.077,0,0.244,0,0.441-0.032c0.02,0,0.039-0.006,0.058-0.006c1.114-0.198,1.901-1.12,2.586-2.016    c0.173,0.038,0.366,0.064,0.57,0.064c0.71,0,1.362-0.275,1.888-0.8c1.074-1.075,1.19-2.816,1.19-3.514    c0-0.493-0.052-0.953-0.16-1.383c0.007-0.025,0.007-0.044,0.007-0.076c0.006-0.02,0.006-0.039,0.006-0.058l0.007-0.032    c0.007-0.039,0.013-0.096,0.019-0.16c0.013-0.07,0.027-0.147,0.027-0.224l0.018-0.122c0.014-0.089,0.025-0.191,0.045-0.294V57    c0.02-0.103,0.039-0.211,0.057-0.326c0.007-0.039,0.015-0.077,0.021-0.122c0.018-0.134,0.044-0.275,0.068-0.422    c0.026-0.134,0.051-0.281,0.078-0.422l0.058-0.275c0.007-0.032,0.007-0.058,0.013-0.083c0.012-0.089,0.025-0.172,0.045-0.256    c0.006-0.026,0.013-0.044,0.013-0.07l0.031-0.154 M71.011,56.642H52.292c-0.187-2.413-0.43-4.064-0.43-5.114    c0-1.529-0.826-3.347-1.977-5.126c-0.123,0.525-0.257,1.146-0.404,1.812c-0.083,0.372-0.166,0.762-0.256,1.152    c-0.039,0.173-0.07,0.346-0.109,0.525c-0.043,0.192-0.082,0.384-0.135,0.589c-0.229,1.133-0.473,2.292-0.684,3.366    c-0.064,0.282-0.115,0.557-0.16,0.819c-0.032,0.128-0.051,0.262-0.076,0.391c-0.045,0.256-0.09,0.499-0.143,0.729    c-0.049,0.313-0.102,0.621-0.141,0.89c0,0.019-0.006,0.032-0.006,0.051c-0.031,0.179-0.051,0.352-0.076,0.505    c-0.006,0.038-0.006,0.071-0.006,0.102c-0.02,0.083-0.02,0.16-0.033,0.23c-0.006,0.064-0.02,0.122-0.02,0.173    c-0.031,0.294-0.031,0.493,0,0.589c0.09,0.301,0.141,0.666,0.141,1.062c0,0.826-0.197,1.729-0.633,2.157    c-0.173,0.173-0.346,0.237-0.524,0.237c-0.437,0-0.852-0.384-1.114-0.384c-0.031,0-0.064,0-0.082,0.006    c-0.366,0.141-1.506,2.215-2.292,2.355c-0.063,0.013-0.122,0.013-0.167,0.013c-0.045-0.013-0.09-0.02-0.107-0.039    c-0.045-0.045-0.051-0.122-0.033-0.224v-0.013c0.02-0.039,0.033-0.089,0.051-0.141c0.02-0.051,0.051-0.103,0.072-0.16    c0.031-0.064,0.062-0.122,0.102-0.192c0-0.012,0-0.012,0-0.012c0.109-0.18,0.23-0.384,0.371-0.615    c0.153-0.23,0.312-0.486,0.498-0.768c0.092-0.134,0.18-0.275,0.283-0.422c0.153-0.237,0.301-0.819,0.453-1.67    c0.052-0.301,0.104-0.647,0.154-1.011c0.031-0.244,0.07-0.506,0.102-0.769c0.02-0.16,0.039-0.333,0.059-0.505    c0.02-0.16,0.038-0.333,0.058-0.505v-0.006c0-0.013,0.007-0.026,0.007-0.045c0.024-0.154,0.039-0.32,0.057-0.486    c0.033-0.244,0.051-0.493,0.084-0.749c0.07-0.736,0.146-1.523,0.224-2.336c0.063-0.762,0.134-1.562,0.198-2.375    c0.032-0.339,0.064-0.698,0.09-1.05c0.031-0.416,0.07-0.832,0.103-1.241c0.044-0.512,0.083-1.011,0.121-1.511    c0.007-0.064,0.013-0.134,0.02-0.198c0.02-0.275,0.038-0.544,0.063-0.819c0.02-0.16,0.026-0.313,0.039-0.467    c0.07-0.819,0.128-1.613,0.198-2.375c0.024-0.23,0.046-0.454,0.063-0.678c0.014-0.109,0.02-0.23,0.033-0.352    c0.006-0.154,0.025-0.294,0.037-0.436c0.014-0.134,0.02-0.25,0.039-0.371c0.064-0.621,0.115-1.184,0.172-1.67    c0.02-0.173,0.046-0.333,0.064-0.474c0.02-0.166,0.039-0.307,0.059-0.448c0.012-0.077,0.018-0.154,0.031-0.224    c0.02-0.109,0.032-0.211,0.051-0.301c0.006-0.064,0.02-0.122,0.033-0.173c0-0.019,0.006-0.032,0.006-0.051    c0.07-0.8,0.326-1.517,0.832-2.099c2.17-2.528,4.07-4.282,3.091-5.261c-0.991-0.979-3.366-0.563-4.845-3.437    c-1.472-2.88-0.947-6.086,1.965-7.571c0.18-0.09,0.352-0.173,0.537-0.23c0.167-0.07,0.34-0.122,0.512-0.167    c0.02-0.006,0.053-0.006,0.07-0.019c0.109-0.02,0.226-0.039,0.327-0.058c0.109-0.013,0.211-0.02,0.32-0.032    c0.063-0.006,0.122-0.006,0.185-0.006c0.02-0.007,0.039-0.007,0.059-0.007c0.127,0,0.256,0.026,0.383,0.033    c0.123,0.013,0.238,0.031,0.354,0.051c-0.007-0.006-0.014-0.013-0.026-0.013c-0.007-0.007-0.007-0.007-0.013-0.007    c0.025,0,0.059,0.007,0.083,0.013c0.063,0.006,0.122,0.019,0.18,0.032c0.095,0.025,0.187,0.058,0.281,0.09    c0.077,0.02,0.147,0.039,0.204,0.07c0.064,0.02,0.109,0.039,0.174,0.058c0.051,0.019,0.102,0.039,0.141,0.07    c0.013,0,0.032,0.013,0.039,0.013c0.051,0.02,0.102,0.051,0.16,0.07c0.223,0.103,0.441,0.225,0.639,0.353    c0.104,0.063,0.186,0.122,0.275,0.192c0.282,0.205,0.545,0.422,0.787,0.666c0.135,0.134,0.264,0.275,0.385,0.403    c0.441,0.48,0.787,0.973,1.031,1.369c0.979,1.606-0.283,4.909,0.767,6.234c0.577,0.743,1.344,0.941,2.496,0.941    c0.468,0,1.005-0.026,1.62-0.077c0.454-0.032,0.953-0.076,1.496-0.115c0.18-0.006,0.372-0.026,0.564-0.039    c0.089-0.007,0.179-0.013,0.269-0.013c0.159,0,0.327,0.013,0.479,0.032c0.153,0.02,0.309,0.039,0.449,0.07h0.006    c0.152,0.032,0.295,0.064,0.429,0.103c0.141,0.039,0.269,0.09,0.409,0.141c0.365,0.153,0.711,0.333,1.043,0.557    c0.333,0.224,0.646,0.486,0.947,0.768c0.205,0.192,0.391,0.385,0.582,0.596l0.007,0.013c0.013,0.006,0.013,0.006,0.019,0.019    c0.021,0.02,0.033,0.039,0.052,0.058c0.134,0.154,0.263,0.307,0.378,0.467c0.02,0.02,0.025,0.039,0.051,0.064    c0.142,0.173,0.27,0.352,0.403,0.544c0.02,0.032,0.038,0.058,0.044,0.09c0.059,0.07,0.098,0.141,0.148,0.205    c0.051,0.07,0.09,0.141,0.127,0.211c0.098,0.141,0.186,0.295,0.277,0.436c0.012,0.02,0.018,0.039,0.031,0.058    c0.18,0.313,0.352,0.64,0.512,0.96c0.205,0.397,0.385,0.793,0.557,1.184c1.408,3.213,2.246,10.547,2.246,14.758    C71.356,52.629,71.19,54.825,71.011,56.642z"/>
	</g>
</g>
</svg>