<svg xmlns="http://www.w3.org/2000/svg" xmlns:xlink="http://www.w3.org/1999/xlink" xml:space="preserve" width="100.0px" height="100px" version="1.1" style="shape-rendering:geometricPrecision; text-rendering:geometricPrecision; image-rendering:optimizeQuality; fill-rule:evenodd; clip-rule:evenodd" viewBox="0 0 400 400">
 <defs>
  <style type="text/css">
   
    .fil0 {fill:black}
   
  </style>
 </defs>
 <g id="Layer_x0020_1">
  <metadata id="CorelCorpID_0Corel-Layer"/>
  <path class="fil0" d="M203 181l0 0 -1 1 -41 0c-7,0 -12,5 -12,12 0,1 0,2 0,2l-26 0 -38 -66 -8 5 41 71 81 0 0 0 20 0 23 -31 10 45c0,8 -8,10 -8,10l-26 8 0 -24 -24 0 -110 0 -24 0c0,44 0,89 0,134l24 0c0,-6 0,18 0,-110l110 0 0 7c-4,0 -7,3 -10,6l0 0 -52 73 0 0c-1,2 -2,5 -2,9 0,8 6,15 15,15 5,0 10,-3 12,-6l0 0 37 -52 0 58 24 0 0 -76 12 -2 0 11 0 67 19 0 0 -67 61 0 0 67 18 0 0 -67 0 -3 12 -116 -18 0 -11 100 -25 0c8,0 15,-5 19,-12 1,-2 2,-5 2,-8l-12 -73c-2,-15 -16,-27 -32,-27l-14 0c0,0 -1,0 -1,0 -12,0 -19,9 -26,17l-19 22zm19 -129l31 10 -3 11 -23 10 18 5 -3 10 -31 -10 3 -11 24 -10 -19 -6 3 -9zm32 38l25 -9 3 9 -10 18 15 -5 3 7 -25 10 -4 -9 10 -19 -15 6 -2 -8zm-21 18l20 0 0 7 -12 11 12 0 0 6 -20 0 0 -7 12 -11 -12 0 0 -6zm-4 35c-5,-10 -16,-17 -27,-17 -17,0 -31,14 -31,31 0,7 3,14 7,19l22 0 29 -33z"/>
 </g>
</svg>