<svg xmlns="http://www.w3.org/2000/svg" xmlns:xlink="http://www.w3.org/1999/xlink" version="1.1" id="Layer_2" x="0px" y="0px" width="100px" height="93.333px" viewBox="0 0 100 93.333" enable-background="new 0 0 100 93.333" xml:space="preserve">
<g>
	<circle cx="47.778" cy="8.889" r="8.889"/>
</g>
<g>
	<circle cx="22.222" cy="51.111" r="11.111"/>
</g>
<g>
	<circle cx="77.778" cy="51.111" r="11.111"/>
</g>
<g>
	<path d="M62.551,16.541c-1.297,1.307-2.072,4.206-0.766,5.503c1.307,1.297,4.2,0.501,5.497-0.806   c1.297-1.307,1.289-3.417-0.017-4.714C65.959,15.226,63.848,15.234,62.551,16.541z"/>
</g>
<g>
	<path d="M60.22,23.62c-0.977-0.97-1.345-2.259-1.318-3.578C57.985,20.003,56.893,20,55.556,20H41.111c-7.778,0-7.778,0-7.778,7.778   c0,0.835,0.002,1.564,0.011,2.23C33.391,30.007,33.438,30,33.484,30c1.387,0,2.574,0.452,3.435,1.306   c1.136,1.128,1.452,2.687,1.274,4.222c0.829,0.024,1.782,0.027,2.918,0.027h14.444c7.778,0,7.778,0,7.778-7.778   c0-1.119-0.003-2.061-0.026-2.881C62.074,24.826,61.006,24.4,60.22,23.62z"/>
</g>
<path d="M22.222,64.444c-2.982,0-5.729-0.996-7.953-2.657C8.22,62.597,2.045,67.967,2.045,74.563L0,93.333l23.523-0.37l2.045-18.333  c0.621-3.708-0.671-7.642-3.217-10.192C22.308,64.438,22.266,64.444,22.222,64.444z"/>
<path d="M97.955,74.563c0-6.596-6.175-11.966-12.224-12.776c-2.223,1.66-4.97,2.657-7.953,2.657c-0.044,0-0.086-0.006-0.129-0.007  c-2.547,2.55-3.838,6.484-3.217,10.192l2.045,18.333L100,93.333L97.955,74.563z"/>
<path d="M54.202,82.077c0.25,0.616,0.025,1.167-0.529,1.167h-8.024c-0.554,0-0.779-0.551-0.529-1.167l0,0  c0.225-0.555,0.764-0.966,1.222-0.966h6.637C53.438,81.111,53.976,81.522,54.202,82.077L54.202,82.077z"/>
<path d="M55.599,86.017c0.327,0.847,0.033,1.605-0.69,1.605H44.431c-0.723,0-1.017-0.758-0.69-1.605l0,0  c0.294-0.763,0.997-1.328,1.596-1.328h8.666C54.601,84.689,55.304,85.254,55.599,86.017L55.599,86.017z"/>
<path d="M57.806,90.372c0.425,0.847,0.043,1.605-0.897,1.605H43.292c-0.94,0-1.322-0.758-0.897-1.605l0,0  c0.383-0.763,1.296-1.328,2.074-1.328h11.263C56.509,89.045,57.423,89.609,57.806,90.372L57.806,90.372z"/>
<path d="M66.223,82.322c0.25,0.616,0.025,1.167-0.529,1.167h-8.024c-0.554,0-0.779-0.551-0.529-1.167l0,0  c0.226-0.555,0.764-0.966,1.222-0.966h6.637C65.459,81.356,65.998,81.767,66.223,82.322L66.223,82.322z"/>
<path d="M69.974,86.262c0.336,0.847,0.034,1.605-0.709,1.605H58.502c-0.743,0-1.045-0.758-0.709-1.605l0,0  c0.302-0.763,1.025-1.328,1.639-1.328h8.902C68.949,84.934,69.672,85.499,69.974,86.262L69.974,86.262z"/>
<path d="M73.356,90.617c0.369,0.847,0.037,1.605-0.778,1.605H60.765c-0.816,0-1.147-0.758-0.778-1.605l0,0  c0.332-0.763,1.125-1.328,1.799-1.328h9.771C72.232,89.289,73.024,89.854,73.356,90.617L73.356,90.617z"/>
<path d="M41.98,82.322c0.25,0.616,0.025,1.167-0.529,1.167h-8.024c-0.554,0-0.779-0.551-0.529-1.167l0,0  c0.225-0.555,0.764-0.966,1.222-0.966h6.637C41.216,81.356,41.754,81.767,41.98,82.322L41.98,82.322z"/>
<path d="M41.119,86.262c0.306,0.847,0.031,1.605-0.647,1.605h-9.818c-0.678,0-0.953-0.758-0.647-1.605l0,0  c0.276-0.763,0.935-1.328,1.495-1.328h8.12C40.185,84.934,40.843,85.499,41.119,86.262L41.119,86.262z"/>
<path d="M40.012,90.617c0.367,0.847,0.037,1.605-0.775,1.605h-11.77c-0.813,0-1.142-0.758-0.775-1.605l0,0  c0.331-0.763,1.121-1.328,1.793-1.328h9.735C38.892,89.289,39.682,89.854,40.012,90.617L40.012,90.617z"/>
<g>
	<path d="M34.588,38.386c1.297-1.307,2.072-4.206,0.766-5.503s-4.2-0.501-5.497,0.806c-1.297,1.307-1.289,3.417,0.017,4.714   S33.291,39.692,34.588,38.386z"/>
</g>
<rect x="37.778" y="37.778" width="22.222" height="10"/>
</svg>