<svg xmlns="http://www.w3.org/2000/svg" xmlns:xlink="http://www.w3.org/1999/xlink" version="1.1" id="Layer_1" x="0px" y="0px" width="100px" height="100px" viewBox="0 0 100 100" enable-background="new 0 0 100 100" xml:space="preserve">
<path d="M29.421,19.786c0,2.725,2.212,4.936,4.937,4.936c2.463,0,3.646-1.558,4.454-0.597c0.416,0.495,0.479,1.12,0.479,2.987v9.676  l8.237,0.003c1.208,0,1.38-0.116,1.479-0.35c0.207-0.478-0.218-1.26-0.218-3.059c0-3.791,4-6.814,7.511-6.814  c3.505,0,7.501,2.874,7.501,6.814c0,1.799-0.424,2.578-0.216,3.059c0.101,0.232,0.272,0.35,1.479,0.35h8.233V6.801  c0,0,0.126-2.123-0.885-3.135c-1.009-1.007-3.401-0.885-3.401-0.885H39.292v9.68c0,1.869-0.064,2.49-0.476,2.987  c-0.808,0.963-1.994-0.596-4.457-0.596C31.633,14.852,29.421,17.061,29.421,19.786z"/>
<path d="M2.886,36.794h9.681c1.869,0,2.49,0.061,2.987,0.477c0.964,0.808-0.596,1.993-0.596,4.456c0,2.727,2.211,4.938,4.937,4.938  c2.722,0,4.933-2.211,4.933-4.937c0-2.462-1.56-3.646-0.595-4.457c0.494-0.413,1.118-0.477,2.986-0.477h9.679v-8.238  c0-1.207-0.116-1.379-0.352-1.478c-0.477-0.206-1.258,0.215-3.056,0.215c-3.792,0-6.817-3.998-6.817-7.507  c0-3.507,2.873-7.505,6.817-7.505c1.795,0,2.579,0.425,3.056,0.218c0.233-0.1,0.352-0.27,0.352-1.479V2.781H7.686  c0,0-2.827-0.197-3.911,0.885c-1.084,1.087-0.89,3.516-0.89,3.516V36.794z"/>
<path d="M46.768,56.415c0-2.728-2.208-4.937-4.934-4.937c-2.464,0-3.649,1.558-4.457,0.596c-0.413-0.497-0.477-1.118-0.477-2.986  v-9.679l-8.236-0.004c-1.208,0-1.38,0.12-1.482,0.354c-0.203,0.478,0.218,1.259,0.218,3.057c0,3.79-4.001,6.814-7.508,6.814  s-7.505-2.871-7.505-6.814c0-1.798,0.427-2.579,0.218-3.057c-0.099-0.23-0.27-0.35-1.479-0.35H2.886v29.332  c0,0-0.055,2.47,1.018,3.537c1.068,1.07,3.506,1.139,3.506,1.139H36.9v-9.678c0-1.867,0.064-2.492,0.477-2.986  c0.811-0.965,1.993,0.599,4.457,0.599C44.559,61.352,46.768,59.139,46.768,56.415z"/>
<path d="M76.521,88.893l20.834-20.832l-6.843-6.842c-1.322-1.322-1.719-1.805-1.777-2.45c-0.109-1.252,1.832-0.984,3.574-2.728  c1.927-1.928,1.931-5.054,0-6.979c-1.929-1.929-5.049-1.929-6.978-0.003c-1.741,1.743-1.479,3.686-2.728,3.574  c-0.646-0.055-1.131-0.453-2.452-1.776l-6.845-6.843l-5.826,5.827c-0.853,0.854-0.893,1.054-0.796,1.292  c0.19,0.483,1.042,0.735,2.314,2.007c2.683,2.681,1.99,7.648-0.49,10.13c-2.483,2.48-7.337,3.274-10.126,0.485  c-1.27-1.27-1.522-2.121-2.008-2.316c-0.236-0.089-0.439-0.052-1.297,0.803l-5.822,5.825l20.908,20.907c0,0,1.642,1.885,3.141,1.883  C74.801,90.858,76.521,88.893,76.521,88.893z"/>
</svg>